<svg viewBox="0 0 409.2 53" xmlns="http://www.w3.org/2000/svg"><path d="m333.7 12.3c0-.6.4-1 1-1h3.8c.6 0 1 .5 1 1v11.6l10.9-12.2c.2-.2.4-.4.8-.4h4.3c.8 0 1.2.9.7 1.6l-11.2 12.5 12 14.5c.4.6.1 1.5-.8 1.5h-4.7c-.4 0-.7-.2-.8-.3l-11.2-13.9v13.1c0 .6-.5 1-1 1h-3.8c-.6 0-1-.5-1-1zm26 2.3c0-1.9 1.5-3.4 3.4-3.4s3.4 1.5 3.4 3.4-1.5 3.4-3.4 3.4c-2 .1-3.4-1.5-3.4-3.4zm.7 7.8c0-.6.5-.9.9-.9h3.5c.5 0 .9.4.9.9v18c0 .5-.5.9-.9.9h-3.5c-.5 0-.9-.4-.9-.9zm19.6-1.3c2 0 3.9.5 4.8.8v-9.7c0-.5.5-.9.9-.9h3.5c.5 0 .9.5.9.9v28.2c0 .5-.4.9-.9.9h-1.6c-.5 0-.8-.4-.9-.9l-.5-1.6s-2.3 3-6.5 3c-5.4 0-9.5-4.4-9.5-10.4-.1-5.8 3.8-10.3 9.8-10.3zm4.8 6s-1.6-1.1-4.1-1.1c-3.3 0-5 2.7-5 5.5s1.6 5.5 4.7 5.5c2.6 0 4-1.6 4.4-2.8zm10.3 12.9c-.3-.2-.5-.6-.3-1.1l1.3-2.6c.2-.5.7-.6 1.2-.3.9.6 2.3 1.3 4.4 1.3 1.5 0 2.2-.6 2.2-1.4 0-.9-1.1-1.7-3.7-2.8-3.8-1.5-5.6-3.3-5.6-6.3s2.3-5.8 7.1-5.8c2.9 0 4.8.8 5.9 1.5.4.3.7.9.4 1.4l-1.1 2.3c-.3.5-.8.6-1.2.4-.9-.4-2.3-1-4-1-1.3 0-1.9.6-1.9 1.3 0 .9 1 1.4 2.8 2.2 3.8 1.6 6.6 2.9 6.6 6.9 0 3.1-2.7 5.9-7.7 5.9-3.3 0-5.3-1.1-6.4-1.9z" fill="#00b18f"/><path d="m1.5 11.9c-1.1.5-1.5 1.4-1.5 2.6v24c0 1.2.4 1.9 1.5 2.6l20.3 11.5c.8.5 2.2.5 3 0l20.2-11.5c1.1-.6 1.5-1.4 1.5-2.6v-24c0-1.4-.6-2.1-1.5-2.6l-20.2-11.5c-.8-.5-2.2-.5-3 0z" fill="#2db893"/><path d="m41.1 21.5c-9.6 0-17.4 8.1-17.4 18.1v.4h-.8v-.4c0-10-7.8-18-17.4-18.1-.1.6-.1 1.3-.1 1.9 0 7.8 4.8 14.4 11.5 17 1.9.7 4.3 1.2 6.4 1.2 2.2 0 4.6-.4 6.5-1.2 6.7-2.5 11.4-9.2 11.4-17 0-.7-.1-1.3-.1-1.9z" fill="#fff"/><circle cx="23.3" cy="16.9" fill="#fff" r="5.7"/><path d="m59.5 12.3c0-.6.4-1 1-1h3.8c.6 0 1 .5 1 1v11.6l10.8-12.2c.2-.2.4-.4.8-.4h4.3c.8 0 1.2.9.7 1.5l-11.2 12.6 12.1 14.4c.4.6.1 1.5-.8 1.5h-4.7c-.4 0-.7-.2-.8-.3l-11.2-13.8v13.1c0 .6-.5 1-1 1h-3.8c-.6 0-1-.5-1-1zm26.4-.1c0-.5.5-.9.9-.9h3.5c.5 0 .9.5.9.9v10.5c1-.9 2.7-1.7 5.1-1.7 6.3 0 8 4.4 8 9.4v10c0 .5-.5.9-.9.9h-3.4c-.5 0-.9-.4-.9-.9v-10c0-2.8-1.2-4.4-3.6-4.4-2.3 0-3.6 1.5-4.1 3.5v11c0 .6-.3.9-1 .9h-3.4c-.5 0-.9-.4-.9-.9v-28.3zm29.5 16.6c2 0 3.8.6 3.8.6.1-2.5-.6-3.7-2.8-3.7-1.8 0-4.4.4-5.6.7-.6.2-1-.3-1.1-.9l-.4-2.2c-.2-.7.2-1.1.6-1.2.4-.2 3.6-1 6.8-1 6.2 0 7.5 3.2 7.5 8.7v10.7c0 .5-.4.9-.9.9h-1.5c-.3 0-.6-.1-.9-.7l-.6-1.3c-1.2 1.1-3.1 2.5-6.2 2.5-4 0-6.7-2.5-6.7-6.8 0-3.6 2.9-6.3 8-6.3zm.1 9c1.8 0 3.3-1.4 3.6-2.1v-2.9s-1.3-.6-2.9-.6c-2.3 0-3.5 1.1-3.5 2.8-.1 1.7.9 2.8 2.8 2.8zm13.2-15.4c0-.6.5-.9.9-.9h1.6c.5 0 .7.2.8.6l.7 1.9c.7-.8 2.6-2.9 6.4-2.9 6.3 0 8 4.3 8 9.1v10.3c0 .5-.5.9-.9.9h-3.5c-.5 0-.9-.4-.9-.9v-10.4c0-2.6-1-4.2-3.4-4.2-2.6 0-3.8 1.7-4.3 3.1v11.4c0 .7-.3.9-1.2.9h-3.2c-.5 0-.9-.4-.9-.9v-18zm28.7 17.8 13.4-29c.1-.3.3-.5.7-.5h.4c.4 0 .6.2.7.5l13.3 29c.3.6-.1 1.1-.7 1.1h-3.7c-.6 0-.9-.3-1.2-.9l-2.1-4.6h-12.9l-2.1 4.6c-.2.4-.6.9-1.2.9h-3.7c-.8.1-1.2-.5-.9-1.1zm18.6-9.1-4.3-9.5h-.1l-4.2 9.5zm21-10.1c3.1 0 5.5 1.3 7.4 3.4.4.4.2 1-.2 1.4l-1.8 2c-.4.5-.9.3-1.3-.1-.9-.9-2.1-1.7-4-1.7-3.1 0-5.3 2.4-5.3 5.5s2.1 5.5 5.2 5.5c2.2 0 3.4-1.2 4.2-2.2.3-.3.9-.4 1.2-.1l1.9 1.6c.5.4.7.9.3 1.4-1.7 2.6-4.3 4.2-7.9 4.2-5.8 0-10.5-4.4-10.5-10.4.3-5.9 4.9-10.5 10.8-10.5zm18.4 7.8c2 0 3.8.6 3.8.6.1-2.5-.6-3.7-2.8-3.7-1.8 0-4.4.4-5.6.7-.6.2-1-.3-1.1-.9l-.4-2.2c-.2-.7.2-1.1.6-1.2.4-.2 3.6-1 6.8-1 6.2 0 7.5 3.2 7.5 8.7v10.7c0 .5-.4.9-.9.9h-1.5c-.3 0-.6-.1-.9-.7l-.6-1.3c-1.2 1.1-3.1 2.5-6.2 2.5-4 0-6.7-2.5-6.7-6.8.1-3.6 3-6.3 8-6.3zm.2 9c1.8 0 3.3-1.4 3.6-2.1v-2.9s-1.3-.6-2.9-.6c-2.3 0-3.5 1.1-3.5 2.8-.1 1.7.9 2.8 2.8 2.8zm21.9-16.8c2 0 3.9.5 4.8.8v-9.7c0-.5.5-.9.9-.9h3.5c.5 0 .9.5.9.9v28.2c0 .5-.4.9-.9.9h-1.6c-.5 0-.8-.4-.9-.9l-.5-1.5s-2.3 3-6.5 3c-5.4 0-9.5-4.4-9.5-10.4 0-5.8 3.9-10.4 9.8-10.4zm4.8 6.1s-1.6-1.1-4.1-1.1c-3.3 0-5 2.7-5 5.5s1.6 5.5 4.7 5.5c2.6 0 4-1.6 4.4-2.8zm18.9-6.1c5.2 0 9.1 3.8 9.1 9.2 0 .3 0 1-.1 1.3 0 .5-.5.9-.9.9h-12.7c0 2.5 2.1 4.6 5 4.6 2 0 3.4-.7 4.3-1.5.5-.4 1-.4 1.3 0l1.7 2.2c.3.4.4.9-.1 1.3-1.7 1.5-4.2 2.7-7.4 2.7-5.9 0-10.1-4.7-10.1-10.4-.2-5.5 4-10.3 9.9-10.3zm3.7 7.9c-.1-1.9-1.6-3.4-3.8-3.4-2.4 0-4 1.5-4.2 3.4zm8.6-6.5c0-.6.5-.9.9-.9h1.5c.4 0 .7.2.8.6l.7 1.9c.8-.9 2.6-2.9 6.1-2.9 2.9 0 4.3 1 5.9 3 .9-.9 2.8-3 6.4-3 6.4 0 7.9 4 7.9 9.2v10.2c0 .5-.4.9-1 .9h-3.4c-.5 0-.9-.4-.9-.9v-10.4c0-2.6-.9-4.2-3.4-4.2-2.9 0-3.7 2.1-3.7 2.1s.1 1 .1 1.9v10.5c0 .5-.5.9-.9.9h-3.5c-.6 0-.9-.4-.9-.9v-10.3c0-2.6-.7-4.2-3.3-4.2-2.5 0-3.4 1.7-3.8 3.1v11.4c0 .5-.5.9-.9.9h-3.5c-.5 0-.9-.4-.9-.9v-18zm32.4.4c-.3-.7.1-1.3.9-1.3h4.1c.4 0 .7.2.8.6l3.6 11.9h.1l4.5-11.9c.3-.5.6-.6 1.2-.6h3.7c.8 0 1.2.6.9 1.3l-11.8 28.2c-.1.3-.5.6-.9.6h-4c-.8 0-1.2-.6-.9-1.3l4-10.1z" fill="#222f63"/></svg>